<svg class="uitk-icon uitk-icon-small" aria-describedby="header-menu-menu-description" role="img" viewBox="0 0 24 24" xmlns="http://www.w3.org/2000/svg" xmlns:xlink="http://www.w3.org/1999/xlink"><desc id="header-menu-menu-description">Navigationsmenü</desc><path d="M3 6.5a.5.5 0 0 1 .5-.5h17a.5.5 0 0 1 .5.5v1a.5.5 0 0 1-.5.5h-17a.5.5 0 0 1-.5-.5v-1zm0 5a.5.5 0 0 1 .5-.5h17a.5.5 0 0 1 .5.5v1a.5.5 0 0 1-.5.5h-17a.5.5 0 0 1-.5-.5v-1zm.5 4.5a.5.5 0 0 0-.5.5v1a.5.5 0 0 0 .5.5h17a.5.5 0 0 0 .5-.5v-1a.5.5 0 0 0-.5-.5h-17z"></path></svg>